/* XPM */
static char *_4c268f2a4e34edfbe5b7abab93e9fc0G88YSO2K3zwUjD3c[] = {
/* columns rows colors chars-per-pixel */
"64 64 183 2 ",
"   c None",
".  c #010100",
"X  c #0A0606",
"o  c #020B02",
"O  c #0D0A0A",
"+  c #120D0D",
"@  c #1A0F0F",
"#  c #041304",
"$  c #061B06",
"%  c #091C09",
"&  c #151111",
"*  c #1C1111",
"=  c #211111",
"-  c #052205",
";  c #072B07",
":  c #0A250A",
">  c #0A2C0A",
",  c #063606",
"<  c #0B320B",
"1  c #0A3A0A",
"2  c #123512",
"3  c #123C12",
"4  c #193B19",
"5  c #0D420D",
"6  c #0E480E",
"7  c #0D550D",
"8  c #0F590F",
"9  c #134413",
"0  c #134C13",
"q  c #1E431E",
"w  c #1A4C1A",
"e  c #145414",
"r  c #145B14",
"t  c #195419",
"y  c #1A5B1A",
"u  c #0D650D",
"i  c #166416",
"p  c #156A15",
"a  c #1B631B",
"s  c #1A6C1A",
"d  c #157215",
"f  c #147C14",
"g  c #1A731A",
"h  c #1D7B1D",
"j  c #204420",
"k  c #224D22",
"l  c #205620",
"z  c #255A25",
"x  c #236923",
"c  c #2C662C",
"v  c #227322",
"b  c #227D22",
"n  c #2F702F",
"m  c #297D29",
"M  c #317631",
"N  c #367936",
"B  c #387D38",
"V  c #158415",
"C  c #148A14",
"Z  c #1B841B",
"A  c #178D18",
"S  c #1B8D1B",
"D  c #169316",
"F  c #179917",
"G  c #1C931C",
"H  c #1B9B1B",
"J  c #1AA21A",
"K  c #1CAC1C",
"L  c #1DB31D",
"P  c #1EB91E",
"I  c #248224",
"U  c #218F21",
"Y  c #298629",
"T  c #2C8D2C",
"R  c #239523",
"E  c #249B24",
"W  c #299829",
"Q  c #338833",
"!  c #3C873C",
"~  c #388938",
"^  c #369B36",
"/  c #22A322",
"(  c #24AD24",
")  c #2EA32E",
"_  c #28AF28",
"`  c #24B424",
"'  c #20BC20",
"]  c #2CB32C",
"[  c #28BA28",
"{  c #37B337",
"}  c #37B937",
"|  c #3BB73B",
" . c #38BD38",
".. c #1EC61E",
"X. c #1FCD1F",
"o. c #1ED61E",
"O. c #1FD81F",
"+. c #22C222",
"@. c #24CA24",
"#. c #2CC32C",
"$. c #2ACD2A",
"%. c #23D423",
"&. c #24DB24",
"*. c #2DD32D",
"=. c #27DE28",
"-. c #29DE29",
";. c #31C331",
":. c #30CE30",
">. c #38C538",
",. c #3ACB3A",
"<. c #31D131",
"1. c #32DC32",
"2. c #3CD53C",
"3. c #26E126",
"4. c #2CE12C",
"5. c #2DEA2D",
"6. c #33E633",
"7. c #36EA36",
"8. c #3DE73D",
"9. c #3AEB3A",
"0. c #34F234",
"q. c #36FB36",
"w. c #3AF13A",
"e. c #3BF23C",
"r. c #3CF23C",
"t. c #3DF23D",
"y. c #3CF33C",
"u. c #3EF23E",
"i. c #3FF63F",
"p. c #3BF13B",
"a. c #3AF93A",
"s. c #39F939",
"d. c #38FF38",
"f. c #39FE39",
"g. c #39FF39",
"h. c #3AFF3A",
"j. c #3BFF3B",
"k. c #3AFC3A",
"l. c #3BFF3C",
"z. c #3CFF3C",
"x. c #3DFE3D",
"c. c #3FFF3F",
"v. c #3AFE3A",
"b. c #449B44",
"n. c #41A341",
"m. c #4CB94C",
"M. c #41C841",
"N. c #4EC34E",
"B. c #4EC84E",
"V. c #41D141",
"C. c #43D243",
"Z. c #46D646",
"A. c #40DE40",
"S. c #54DB54",
"D. c #5EDF5E",
"F. c #41E641",
"G. c #40EA40",
"H. c #42EE42",
"J. c #4AE14A",
"K. c #4BE84B",
"L. c #4EEF4E",
"P. c #48EC48",
"I. c #40F740",
"U. c #44F144",
"Y. c #44F045",
"T. c #40FD40",
"R. c #41FF41",
"E. c #42FF42",
"W. c #45FD45",
"Q. c #45FE45",
"!. c #4AF34A",
"~. c #4BF64B",
"^. c #4CF74C",
"/. c #4FF44F",
"(. c #4AF14A",
"). c #50E750",
"_. c #54E354",
"`. c #56EE56",
"'. c #55F355",
"]. c #50F950",
"[. c #59F559",
"{. c #5DF95D",
"}. c #6DFD6D",
/* pixels */
"    . . . . . . . . . . . . . . . . . . . . . . . . . . . . . . . . . . . . . . . . . . . . . . . . . . . . . . . . . . . .     ",
"  . . o 0 i i i i i i a i i a i a a a a a a a a a a a a a a a a x a a a a a a a a a a a a a a a i i a i i i i i i e < . . . .   ",
". . r 7.g.g.g.g.x.x.c.x.E.E.Q.Q.W.W.W.W.I.u.w.w.u.p.U.u.p.u.u.u.u.9.u.u.p.p.H.u.p.y.p.9.p.p.w.0.0.0.w.0.0.0.0.0.0.q.q.$.r . . . ",
". - 0.d.g.g.x.x.s.7.6.5.5.4.3.=.&.&.&.-.=.&.=.&.=.&.=.=.-.&.-.-.-.-.-.&.-.-.=.=.&.-.&.-.&.&.&.%.&.&.%.%.O.O.o.O.o.o.5.g.d.Z . . ",
". r g.g.g.x.q.3.O.O.O.&.%.&.&.O.&.&.&.&.&.-.-.&.=.=.=.=.-.=.-.-.-.-.-.-.-.&.-.&.&.-.&.&.-.&.&.&.&.&.O.O.&.O.&.O.O.o.o.4.g.q.> . ",
". g g.g.x.s.3.&.O.O.&.O.&.&.&.&.&.&.-.&.&.&.=.-.=.=.=.=.3.-.-.-.-.-.-.-.-.-.-.4.-.-.-.&.&.&.&.&.&.&.&.&.&.O.O.O.O.O.o.O.5.g.i . ",
". h g.l.g.3.O.O.&.O.O.&.&.&.&.&.&.-.-.&.-.-.-.-.=.=.4.-.-.-.4.-.-.4.4.-.3.=.-.-.-.-.=.=.-.&.-.&.&.&.%.&.&.O.O.&.O.O.O.o.O.q.h . ",
". h g.x.3.%.%.O.O.&.&.&.&.&.&.=.&.-.&.-.-.-.-.-.4.=.=.4.4.4.4.-.4.-.-.4.4.=.3.4.-.-.-.-.-.=.=.=.=.&.3.&.&.&.&.O.&.O.O.O.o.0.R . ",
". h l.0.O.O.O.O.&.&.&.&.&.&.&.=.-.-.-.-.-.-.-.4.4.4.4.4.4.4.4.4.4.4.4.4.4.4.4.-.4.-.-.-.4.=.=.=.=.=.&.%.&.&.&.&.O.&.O.O.O.5.E . ",
". h c.5.O.O.&.&.&.&.&.&.&.=.=.=.-.-.-.-.4.4.4.4.4.4.4.4.4.4.4.4.4.4.4.4.4.4.4.4.4.4.4.4.-.-.-.=.=.=.3.=.&.&.&.%.&.O.&.O.O.3.E . ",
". h c.3.&.O.O.&.&.&.&.&.&.&.=.=.-.3.4.4.-.4.4.4.4.4.4.4.4.4.4.6.4.4.6.4.4.4.4.4.4.4.4.-.4.=.4.-.=.=.-.=.&.&.&.&.&.&.O.O.O.%.E . ",
". I c.&.&.&.&.&.&.&.=.=.4.4.4.4.-.4.-.4.4.4.4.4.6.4.4.6.4.6.4.4.6.6.4.6.6.4.4.6.4.4.4.4.4.4.-.=.=.4.4.4.4.3.&.&.&.O.3.O.&.O.E . ",
". b x.&.O.&.4.e.G.A.V.V.V.C.Z.J.L.].~.G.4.4.4.4.4.4.4.6.6.6.4.6.4.6.4.6.4.6.4.4.4.6.4.4.4.9.Y.^.K.M.| | {  .,.2.9.4.&.O.O.O.R . ",
". g E.&.O.5.) % o . . . . . . . o % w m | G.4.6.6.6.6.6.4.1.6.6.6.6.6.6.4.6.1.6.6.4.6.!.).^ l : . . . . . . . . # > P &.&.O.G . ",
". g i.&.&.i.> $ : < ; X + + O & O O X . . 4 *.4.1.6.6.6.6.6.6.6.6.4.6.6.6.6.6.6.4.8._.z . . . . X X O O + X $ 1 , o u %.&.%.G . ",
". h x.&.=.F.o i 7 6 : o & & & & & & & & @ . / 6.6.6.4.6.6.6.6.6.6.6.6.6.6.6.6.4.6./.2 X + + & & & & & & & O o 6 6 ; 5 o.&.%.V . ",
". b x.%.4.2.$ d d r $ O & & & & & & & & & X g 6.6.6.6.6.6.7.6.7.6.6.6.7.6.6.6.6.6.'.. & & & & & & & & & & O o 6 6 1 ; ..&.&.f . ",
". b i.%.4. .- d d p # + & & & & & & & & & o i 1.6.7.6.7.6.6.6.7.7.7.6.6.7.7.6.6.6.[.. & & & & & & & & & & & . 6 e 8 - P &.O.V . ",
". b w.&.3.} - d g p o & & & & & + & & & & X p <.6.6.6.6.8.6.7.6.7.8.7.6.6.7.6.6.6.[.. * & & & & & & & & & & o 6 p i - L &.&.C . ",
". b w.&.4. .$ g g p o & % & & & + & & & & X i :.8.6.7.7.7.7.7.8.7.6.7.8.6.7.8.6.6.[.o & * & * & & & & % & O # 0 g i ; K &.&.V . ",
". b w.&.=.} $ d g r $ O & & & & & & & & & X i :.6.7.7.7.7.7.7.7.8.9.6.9.7.7.7.7.7.[.% * & * & & & & & & & X : 6 g r 1 K &.&.V . ",
". b w.&.=.>.. g p $ . . X O + & & & & & & X a :.7.7.7.8.7.7.8.w.7.8.9.7.7.9.7.6.7.'.4 + & + + + + O O X . . o 5 i 0 7 K =.&.V . ",
". b w.&.=.8.o r # - s e - . . . X . X X X . Z 1.7.8.7.w.8.7.8.9.8.9.7.7.7.8.9.6.7.P.n . . . . . . . o % 2 6 $ o < 1 p L 3.%.V . ",
". b 7.=.=.6.9 o : g h h h h t < % # o $ % % / 9.7.9.7.9.9.8.9.8.9.9.9.9.9.9.7.9.7.9.N.# w e 9 9 0 t y s s s r - . . V P =.=.V . ",
". b 7.=.-.-.E . : 5 e s h h I b v t t t > t ;.(.'.'.'.'.`.'.[.'.[.[.[.'.'.'.'.'.'.H.P.% : 3 a b b I h h g s e < o ; S @.-.-.f . ",
". b 7.=.=.-.-.V ; o . . . $ : > > % $ o # W D.B k 4 q j j j j j j j j j j j 4 j k c ,.] 1 X . . o o . . . . . > p A H =.&.&.f . ",
". b w.=.=.=.-.-.$./ Z p r 5 < : : < 1 r U S.% o % X X O O O O X O O O X O + X # % # > 1.7.;.E s e 5 5 6 r d S S G ` %.=.3.%.d . ",
". b 9.=.=.=.4.4.4.4.4.$.[ [ ` _ _ _ ] ;.1.m.% l y # @ * = = = = = = = = = = @ % y y X R 6.7.6.6.1.#.[ ` ( ( ` $.-.=.=.=.=.=.d . ",
". b p.=.=.=.-.-.4.4.4.6.4.6.6.6.6.6.6.9.9.b.: y z $ * = = = = = = = = = = @ @ # x I : s ;.7.7.6.6.6.4.6.6.4.4.4.-.4.-.-.&.&.d . ",
". b 9.=.=.-.4.4.4.4.4.6.6.6.6.6.6.7.6.9.8.! 2 x T # * * * = = = = = = = = = @ % T T 9 i E 7.6.6.6.6.6.4.4.6.4.4.4.4.-.=.=.=.p . ",
". b 9.=.-.4.4.-.4.4.4.4.4.4.6.6.7.7.6.9.F.N w T 9 X * = = = = = = = = = = = = o m T 9 y R #.6.7.6.6.6.6.4.4.4.4.-.4.=.=.&.=.8 . ",
". b u.=.=.-.=.4.4.4.4.6.6.6.6.6.6.6.7.7.(.N y 3 X * * = = = = = = = = = = = = O $ m w r R E 1.6.6.6.6.4.6.4.4.4.4.-.=.=.=.&.8 . ",
". m p.=.-.-.-.4.4.4.4.4.4.6.7.8.Y.'.'.}.}.z # X = = = = = = = = = = = = = = = = X . % e R R R _ #.1.6.6.4.4.4.4.4.4.-.-.=.-.7 . ",
". b 9.=.-.-.4.4.4.4.6.6.7.'.B.n.~ n c z q . X @ = = = = = = = = = = = = = = = = = + . $ 6 9 0 0 6 6 i +.6.4.4.4.4.4.-.=.=.%.7 . ",
". b p.=.=.-.4.-.4.4.4.6.`.4 . . . . . X X + * = = = = = = = = = = = = = = = = = = * @ O . . . . . # o % *.4.4.4.3.-.-.-.-.%.7 . ",
". b 9.=.-.-.-.4.4.4.4.8.Q % e t 3 X * * * * * = = = = = = = = = = = = = = = = = = * * = = * * @ > t t # h 4.4.4.-.4.-.-.-.%.7 . ",
". m 9.=.=.=.-.-.4.4.4.(.c < t y < X * * * * * * * = = = = = = = = = = = = = = = = = * * * * * + $ t t < 6 -.4.4.4.-.=.=.-.+.8 . ",
". b w.=.=.-.-.4.4.4.4.(.l 3 t t : + * * * = * = = * * = = = = = = = = = = = = = * = * * * * * * o t a 9 < #.4.4.-.-.=.=.&.' 7 . ",
". b 9.=.=.=.=.4.4.4.4.~.9 3 t s > O * * * * * * * = = = = = = = = = = = = = = = = * * * * * * * . b I t < ` 4.4.4.-.=.=.=.' 7 . ",
". b p.&.=.-.-.-.3.4.4.(.w 9 v I > + * * * * * = * = * = = = = = = = = = = = = = * * * * * * & * X b I y < ` 4.4.3.-.=.=.=.' 7 . ",
". b w.&.&.=.=.-.4.4.4.Y.w y I Y > & * * * * * * = * = * = = = = = = = = = = * = * = * * & * * * X v I a < ( 4.4.4.-.-.&.-.L 7 . ",
". b w.=.-.&.=.-.4.=.4.H.w a I Y : + & * * * * * * = * = * = = = = = = = * = = * * * * * * * * & X s I t < / 3.=.-.-.=.&.&.K 7 . ",
". b 9.&.&.=.-.-.4.4.4.H.w a Y I % @ * * & * * * * * * * = = = * = = = = = * = * * * * * * * * & X a I r < H 4.3.-.-.-.-.&.J e . ",
". b w.&.-.=.=.=.=.=.4.U.w a I Y : & & * * * * * * * * * * * * = * @ = = = * * * * * * * * & * * X r I y < H 4.=.-.-.&.&.=.H 7 . ",
". b 7.&.&.&.-.-.4.-.4.H.w i I I < @ * & * * * * * * * * * * * = = * = * * = * * * * * * * & * & X 9 I t < G 4.4.=.=.=.&.&.A 7 . ",
". b 0.&.&.-.&.&.=.-.-.H.w y I I > + & * & * * & * * * * * = * * * * * = * * * * * * & * & * & * X > b r < G -.&.=.=.&.&.%.C 7 . ",
". b w.&.&.&.=.-.=.-.3.U.w a I I : + * & & * * & * * * * * * * * * = * @ * @ * * * * & * * & & & O > h t < G 3.=.-.&.=.&.+.A 7 . ",
". h 7.&.&.&.&.&.=.=.-.9.w a h b : + & & * & * * * * * * @ + O O O X O O + @ * * * * * & & * * & O > g r < G -.&.-.&.&.&.P C 7 . ",
". h 7.&.&.&.&.&.3.=.-.H.w y h I : + & & & * * & * * * + . . # # X $ $ $ o X * * * * & * * & & & X > s t < A &.&.-.&.&.O.L C 7 . ",
". b 7.&.&.&.&.&.&.=.3.9.0 a I h : + & & & & & * & * + % v T T T T T T T I o X * & & * & & & & & X > i r < G =.-.&.&.&.&.K C 7 . ",
". h 0.O.&.&.&.&.&.=.=.p.w a h h : O & & & * & & * + . v v a w 9 9 2 2 3 w < . + & * & * & & & & . 2 t r < D &.=.&.&.&.&.J C 7 . ",
". h 0.O.O.O.&.&.=.&.&.9.w t h h : O & & & & & * + . o o . . o # o . . . . . . . * & & & * & & & . 1 0 0 < D =.&.&.&.O.&.F C 7 . ",
". h 0.O.&.&.&.&.&.&.=.9.0 r h s > X & & & & & & + . : r g S U G G S Z h s e # . & & & & & & & & . 0 0 1 < G &.&.&.&.%.O.A C 7 . ",
". h 0.&.O.O.&.&.&.&.&.7.w r h r > X & & & & * & X < G U U H H R R H R H G S f o + & & & & & & + o 0 0 3 < F &.&.&.&.O...C C 7 . ",
". h x.O.O.O.&.O.&.&.&.w.0 r g 0 > X & & & & & O X p S H *.4.5.4.4.4.4.4.4.$./ > . X O + + + + X % 0 0 < ; F &.&.O.&.O.K C C 7 . ",
". h x.%.&.O.O.&.&.%.&.7.w r i 0 < . . . . . . o o d G -.4.4.-.4.4.4.4.4.4.4.%.1 $ $ o . . . . . o 6 6 < < F &.%.&.O...C C C 7 . ",
". h g.3.O.O.O.O.O.&.&.7.e 0 0 1 $ 0 9 6 0 r s s # d ( 4.-.4.4.4.4.4.4.4.-.4.-.e : e 0 s h s g h , o < , , F %.O.O.o.C C C C 7 . ",
". h g.5.O.O.%.O.O.O.O.5.e < : o i h h h h s r 0 o S @.-.4.4.=.4.3.4.=.4.-.-.4.f o 0 e i h h g p e - . o 1 K O.O.o.F C C C C 7 . ",
". h d.0.O.O.O.O.O.O.&.&.g . o 6 e 7 0 5 < : $ . 1 G =.-.=.=.=.=.4.=.=.4.=.=.=.' # o - > > > ; - : : # . p P O...D C C C C C 7 . ",
". h d.d.3.O.o.O.&.O.O.&...5 $ o . . . o # $ - 7 A P =.=.-.=.=.=.=.=.=.=.=.&.-.-.H 1 $ o o o # # # # # 7 D o.K C C C C C C C 5 . ",
". r d.d.0.O.O.O.O.O.O.O.O.&.P J D V V D A D G H K &.-.-.=.=.=.=.=.=.=.=.=.=.=.&.&.P H G A C A A C D F K K D C C C C C C C C $ . ",
". . V 7.g.q.3.3.O.O.O.O.O.%.O.O.&.%.%.%.%.=.%.&.&.&.%.@.@.+...' ' ' +.' ' +.' ' P P P K K J J H F J F C C C C C C C C f u , . . ",
". . . # < 5 5 6 5 , 1 1 , 1 , 1 , 1 1 1 1 1 , ; ; : : - - - - - - - - - - - - - - - - - - - - - - - - - - - - - $ $ # . . . .   ",
"  . . . . . . . . . . . . . . . . . . . . . . . . . . . . . . . . . . . . . . . . . . . . . . . . . . . . . . . . . . . . . .   "
};
