/* XPM */
static char *_3caf8ffb85d448f85756d70bf3b5e8e34o3Ckwj58olKEDt[] = {
/* columns rows colors chars-per-pixel */
"64 64 246 2 ",
"   c #1C0301",
".  c #180503",
"X  c #0E0000",
"o  c #230603",
"O  c #240906",
"+  c #2B0B03",
"@  c #250C0A",
"#  c #2B0E0A",
"$  c #2B0600",
"%  c #310D03",
"&  c #2D120C",
"*  c #28130D",
"=  c #33140D",
"-  c #3C160D",
";  c #35190D",
":  c #3B1B0E",
">  c #351107",
",  c #2C1512",
"<  c #2D1815",
"1  c #321611",
"2  c #351A13",
"3  c #3B1C14",
"4  c #391E19",
"5  c #391914",
"6  c #3E2116",
"7  c #3D221A",
"8  c #3F200E",
"9  c #3D2522",
"0  c #363631",
"q  c #3A3B35",
"w  c #3C3C39",
"e  c #383732",
"r  c #3B352E",
"t  c #421B0D",
"y  c #421D13",
"u  c #4A1F13",
"i  c #432214",
"p  c #4A2314",
"a  c #44241B",
"s  c #4A251B",
"d  c #4C2A1B",
"f  c #482919",
"g  c #51261B",
"h  c #522C1C",
"j  c #572C1C",
"k  c #54311E",
"l  c #5A321E",
"z  c #482714",
"x  c #452923",
"c  c #4C2C23",
"v  c #4B2E29",
"b  c #432723",
"n  c #532D22",
"m  c #5A2E22",
"M  c #542F29",
"N  c #4B3225",
"B  c #4D312C",
"V  c #4A392C",
"C  c #543223",
"Z  c #5B3423",
"A  c #5D3925",
"S  c #53342B",
"D  c #5B352B",
"F  c #5C3B2C",
"G  c #543A2D",
"H  c #453C34",
"J  c #553A33",
"K  c #5B3C34",
"L  c #583934",
"P  c #633C2C",
"I  c #6A3C2C",
"U  c #643726",
"Y  c #633C32",
"T  c #693E33",
"R  c #7C3A22",
"E  c #73351E",
"W  c #3F403A",
"Q  c #45413B",
"!  c #5D4234",
"~  c #5E423B",
"^  c #554337",
"/  c #5F412E",
"(  c #6A422D",
")  c #65412E",
"_  c #644233",
"`  c #6B4434",
"'  c #64443C",
"]  c #6B453B",
"[  c #644A3C",
"{  c #6C4A3D",
"}  c #6E4936",
"|  c #734C3C",
" . c #764838",
".. c #78513E",
"X. c #744A31",
"o. c #4C4C4B",
"O. c #474544",
"+. c #5A4C47",
"@. c #575757",
"#. c #50514F",
"$. c #654C43",
"%. c #6C4C43",
"&. c #674944",
"*. c #734C42",
"=. c #784E45",
"-. c #6A5349",
";. c #745244",
":. c #7B5344",
">. c #7B5A4C",
",. c #79574B",
"<. c #6A5953",
"1. c #785C52",
"2. c #7B6459",
"3. c #60615C",
"4. c #656664",
"5. c #7D6B62",
"6. c #787874",
"7. c #8A4C35",
"8. c #8A5137",
"9. c #835C4B",
"0. c #855748",
"q. c #985B45",
"w. c #855C52",
"e. c #834E41",
"r. c #88614E",
"t. c #8C6453",
"y. c #876657",
"u. c #9A6B5B",
"i. c #956857",
"p. c #99715E",
"a. c #A86B57",
"s. c #AD6D57",
"d. c #876C63",
"f. c #986F63",
"g. c #877369",
"h. c #977469",
"j. c #8B7A72",
"k. c #977D75",
"l. c #A36E60",
"z. c #A77767",
"x. c #B67A67",
"c. c #BE6662",
"v. c #A15F45",
"b. c #C87971",
"n. c #95837A",
"m. c #988378",
"M. c #BB816C",
"N. c #A5897C",
"B. c #B98777",
"V. c #AD806B",
"C. c #C8866D",
"Z. c #C98B76",
"A. c #D48D74",
"S. c #CC917A",
"D. c #D3947B",
"F. c #D89579",
"G. c #E0987C",
"H. c #968F88",
"J. c #A68C84",
"K. c #A8948B",
"L. c #AB9C93",
"P. c #B5998F",
"I. c #ABA39D",
"U. c #B6A59B",
"Y. c #BCABA3",
"T. c #B6ABA6",
"R. c #BEB3AC",
"E. c #B7B4B0",
"W. c #C79788",
"Q. c #DB9D83",
"!. c #D39A85",
"~. c #D1948B",
"^. c #E39A85",
"/. c #E3948F",
"(. c #DEA28B",
"). c #D7A18B",
"_. c #DAA795",
"`. c #CEA59F",
"'. c #E3A186",
"]. c #E4A58B",
"[. c #EAAA8E",
"{. c #E8A78A",
"}. c #E3AB94",
"|. c #EBAD93",
" X c #E7AB99",
".X c #F4A898",
"XX c #EDB195",
"oX c #ECB39B",
"OX c #E6B19A",
"+X c #F2B59B",
"@X c #F4B99D",
"#X c #F3B498",
"$X c #C5B4AA",
"%X c #C5B9B4",
"&X c #CBBDB4",
"*X c #C8BBB8",
"=X c #CCACA2",
"-X c #EBB6A2",
";X c #F4BBA4",
":X c #F9BDA4",
">X c #F7BAA8",
",X c #F6B1AA",
"<X c #CAC2BD",
"1X c #D2C4BD",
"2X c #D8C3BB",
"3X c #FAC1A6",
"4X c #F6C2AB",
"5X c #FBC3AC",
"6X c #FFC9AF",
"7X c #FBC6B2",
"8X c #FDCBB4",
"9X c #FDCDBA",
"0X c #F4C4B5",
"qX c #FDD2BD",
"wX c #ECC2B2",
"eX c #BEBEC0",
"rX c #C7C6C8",
"tX c #D5CAC3",
"yX c #D5CCC6",
"uX c #DBD2CD",
"iX c #D7D2CC",
"pX c #CDCCD1",
"aX c #DBD6D2",
"sX c #DED9D6",
"dX c #DDDCDD",
"fX c #D4D4D8",
"gX c #FDD4C1",
"hX c #FED9C5",
"jX c #FBD8CA",
"kX c #E3DAD5",
"lX c #E3DDDB",
"zX c #E7DBD5",
"xX c #E3D4CB",
"cX c #E6E1DE",
"vX c #EBE3DD",
"bX c #F2E5DC",
"nX c #DEDEE3",
"mX c #E1DEE3",
"MX c #E4E1E3",
"NX c #E8E3E0",
"BX c #EAE5E2",
"VX c #EAE5E2",
"CX c #EDE9E5",
"ZX c #F2E9E5",
"AX c #F5EAE5",
"SX c #DFE0E2",
/* pixels */
"NXNXNXcXNXBXNXBXCXCXNXCXNXNXNXcXvX$Xf ; ; 6 ; 7 = 3 i K { Y <.&.4 , 6 1 6 N { Z k 8 m.bXkXbXCXCXBXcXcXSXdXdXdXdXdXdXfX4.q q @.sX",
"NXNXNXNXNXNXBXBXNXCXCXBXNXNXcXcXcX-.; f 6 6 6 N V a N %.1.$.B v , , 4 7 N ' { | A z V &XbXcXCXCXBXcXcXSXSXdXdXdXdXdXdX4.q q @.iX",
"NXNXNXNXNXBXNXNXCXNXCXBXNXvXcXAXJ.6 i f / / ) { $.K _ d.[ 3 1 & & # @ ; N ,.>.} X.k z 2.bXbXCXBXBXBXBXSXnXdXdXdXdXdXfX4.q w #.yX",
"NXNXNXNXNXNXBXBXCXCXNXBXNXcXvX1XN 8 k A / } { { %.%.K ' v ; 2 b 9 & * 2 f { y...X./ k V R.bXCXCXCXBXSXSXnXSXdXSXdXdXfX3.q q o.yX",
"NXNXNXNXcXNXNXCXBXCXBXBXNXvXvXg.f / A A ] 9.w.w.%.[ S 4 ; 3 x S a = 6 7 N ` r.>...X.k k n.bXCXZXBXBXBXSXSXSXdXSXSXdXnX3.q w O.rX",
"NXvXNXNXNXNXNXCXBXCXBXvXvXvX$X! A l ) ..f.f.T M c a a 5 = a C 3 ; 2 = : C } :.t...X.k f A 2XAXZXBXBXBXSXSXnXdXdXdXnXfX@.w w Q <X",
"NXNXNXNXNXBXBXBXCXCXBXcXvXbXm.) ) X.e.9.f.t.m y > > # = 6 ! S : ; a c i k } r.t.>.X.A k 8 N.AXbXBXBXSXSXSXnXnXdXnXdXfX@.q W Q E.",
"NXNXNXNXBXBXBXCXCXCXbXvXvX$X[ k h p h I =.} D u 3 = 3 c { ' a : d f k ) Z ..i.u.V...A z k [ xXAXBXBXMXSXnXnXnXnXdXSXfX@.w W O.E.",
"NXNXNXNXNXVXNXCXCXCXCXVXtX$.= % O 5 b u 5 - t y y y n =.:.n n s i h P ..0.X.r.V.t.9.( z k k N.AXCXMXMXnXnXnXnXnXdXSXfX@.w w w E.",
"NXNXNXNXNXNXVXVXCXCXZXlXm.; = c J L L y - 5 y g U I 0.u. .g u n A P X...i.i.r.p.p...( k z k [ xXCXCXMXMXMXnXnXnXSXnXfX#.w w 0 I.",
"NXNXNXVXVXVXVXCXCXVXZX*X~ a J B B 9 9 y y g w.l.l.c.~.l.u. .g u p D =.i.i.V.p.t.p.....A z z f P.AXCXMXnXnXnXMXnXnXnXpX@.w W w I.",
"NXNXNXNXVXVXVXVXCXCXbXU.V v & . @ 4 u D e.x. X X X-X XC.x.u.I n t - y I p.V.V.u.y.} | X.f k f 1.CXMXMXnXnXnXnXnXnXnXpX@.w W w H.",
"NXNXNXNXNXCXCXVXVXZXxX5.7 # # * , & M z.!.}.+X>X>X8X7X X!.x.0.P m u y t u e.u.i.r.X.( ( l z z C rXZXmXmXnXnXnXnXnXnXpX#.w W w H.",
"NXNXNXBXNXNXVXVXNXAXY.v 1 7 9 < , 7 u.(.|.@X:X>X>X9X9X7X-X).x.7. .L M M n U X.q...X.l A A z 8 f k.ZXmXmXMXnXnXnXnXnXpXo.w W 0 H.",
"NXBXNXCXCXNXNXCXCXvXg.2 5 J r 2 1 n Z.].|.@X:X:X7X9XgXgX9X;X(.V.e. .D b a M I  .8.( l l A k t 8 %.yXmXmXnXnXnXnXnXnXpXo.w O.0 6.",
"NXNXNXNXNXNXCXNXCX1X$.= S +.B 2 & =.!.{.XX:X:X4X9XgXhXhXgX8X5XoXx.T T L 5 > g  .X.X.j z l l z 8 G U.ZXmXnXnXnXnXnXnXpX#.w W w 6.",
"BXBXNXCXNXBXBXBXZXI.x 3 ' %.B 5 3 i.!.].XX:X3X7XqXhXhXhXqXqX8X4X,Xx.=.&.Y s d T X.X.U p k k f 6 G j.sXlXmXlXnXnXnXMXpX#.q W 0 6.",
"BXNXNXCXBXNXBXCXcXj.; S ' %.B 1 y l.D.[.#X3X6X8XqXhXhXhXjXqXqX0X9X Xl.=.Y K K T 8.( ( p z d f 8 C 2.%XcXdXnXnXnXnXmXpXo.q w 0 4.",
"NXBXBXNXVXNXBXCXuX-.a ' Y %.B + s z.D.[.@X3X7X9XqXhXjXqXhXqXqX8X>X>XW.0.K L L *.r.8.) l t h d p a $.L.cXcXdXnXSXnXMXpXo.q W 0 4.",
"BXNXCXNXNXCXVXAX1XJ G ' ' ;.v o h x.Q.[.@X3X7X9XqXqXhXjXqXqXqX0X4X>X-Xz.T M v =.:...( l t z f z ; V k.iXdXdXdXnXnXmXpXo.q W 0 3.",
"CXNXCXNXCXNXVXAXR.7 K F %.*.x O A V.G.|.@X3X6X8XqXqXqXqX9X9XgX9X>XoX+X~.w.M M Y :.` ..l d i f z : 7 5.<XkXsXdXdXSXSXrXo.q w 0 @.",
"VXNXvXNXVXCXCXAXK.2 K d { %.v > l B.).XX@X3X6X8X9X9XqXqX9X9X9X>X;X+XoX+Xx.U M S :.P  .( p 6 p A i ; [ U.sXdXdXdXSXSXrXo.q w q #.",
"NXNXCXCXCXNXNXZXn.1 K d ] %.B ; l Z.(.XX@X3X8X8X8XqXjXjXgX>X`. X X@XoX#X Xw.M Y ` ` U } d i z C f ; / K.iXsXSXSXSXSXrXo.w w 0 o.",
"NXCXNXCXNXCXNXZXd.3 _ d F { J = C Z.{.#X:X6X8X8X0XgXjX>X`.z.l.f.l.C..XoX-XZ.P D '  .Z U A k t d k 8 6 n.<XdXsXdXSXSXrXO.w w q O.",
"NXVXCXVXVXVXCXCX1.d [ d P _ S - c W. X#X>X6X8XqX8XqXP.t.d.W.,XgXoX!.^.|.XX X0.u Y =.U m m D h t C z 8 d.T.aXdXdXSXSXrXO.0 w 0 O.",
"VXVXCXVXCXVXVXzX$.C _ d h P L 1 s u.W.>X3X6X8X8X4XV...w.`.,X`.`._.!.!.[.|. Xx.m g *.=.g s C h d h C ; %.T.<XdXdXSXMXrXW w w 0 w ",
"VXVXVXVXVXNXZXuX~ D _ d h Z S 1 y n Z u. X5X5X9X).t.a.W.J.' B =.w.z.S.[.|.}./.=.y Y =.I u l Z z z l i V K.*XaXdXSXSXrXO.w w w w ",
"VXVXVXCXCXNXZX1X! F _ n p C M # b k.,.( z.;X4X8X XB._.N.4 . @ . c e.Z.|.XX X].a.u n =.=.h h l Z z h d v k.%XyXsXdXSXrXO.q q q w ",
"VXVXVXVXCXVXZX$XV _ K n i n c = M J.h.&.e.~.>X7X7X-XOXL b &.b L & T (.;XXX{.].Z.m u T 0.) p l h A k A d g.$X<XsXnXSXeXO.w q q 0 ",
"VXVXCXVXVXNXcXT.J _ D d t s a 2 5 L < # ~ z.-X7X9X>X_.D 2Xj.v d.=.W.>X:X.X{.^.D.T - g ] r.d p Z l ( ) C 2.<X%XiXfXmXeXO.q w q q ",
"VXVXVXVXVXNXcXL.~ _ K f 3 d a 5 , < @ b 4 ,.~.9X9X4XW.h.xXk.L L z.0X:X:X|.'.^.A.=.u t F >.>.d k ) ( } _ ;.$XT.*XaXaXE.o.q 0 q q ",
"VXVXCXVXVXCXzXK.! ' _ f : d a 5 < . +.I.b &.W.gX7X4XOXf.*.] w.b.,X>X3X@X.X^.^.D.a.I t i ` 0.:.Z ( :.>.r.>.U.$XK.R.%XT.O.w w q 0 ",
"ZXmXVXVXVXCXyXk.~ [ S s y a a 4 # 9 <.%X^ 2.B.8X4X4X4X_.`.W._.7X4X>X3X@X[.G.G.F.x.q.j > l .. .| ` :.t.p.p.m.m.h.L.xX*XO.q q q e ",
"VXVXCXVXVXVXtXj.$.{ C i i y y a + 1.T K ! 2.S.qX4X3X8X4X;X7X7X5X5X7X:X#X[.G.A.A.x.s.U t p T  ...0.| *.:.>.i.N.K.n.n.j.+.H r r e ",
"VXVXVXVXmXlXyX5.-.$.c s s y 3 - % h.h. .V.`.).8X5X5X8X8X4X5X5X>X5X5X:X#X{.G.A.C.b.x.v.U t m ` =.0.9.P ;.>.i.N.m.5.5.T.3.H r r q ",
"VXVXCXVXVXVXtX<.g.%.a i a y a > # z.)._.@XOX}.6X3X6X8X8X7X4X7X7X7X:X@X#XG.A.A.C.C.~._.i.j u K |  .t.9.A } ..m.U.$X<X%X5.H H r 0 ",
"VXVXVXVXVXZX$X+.g.-.a s y 3 a > % z. X X;XOX}.6X3X6X8X8X8X8X8X8X6X3X#X#XG.A.A.C.C.Q.-XW.T n n Y =.| 9.9.:.:.;.P.&X1XyXg.^ V H r ",
"mXVXVXVXNXAXT.-.n.2.d f y i 4 = % z.-XXXXXXX}.6X3X3X8X8X8X8X9X9X6X3X#XG.G.G.b.A.C._.-X=Xf.u Y S Y ,.9.:.t.y.r.2.K.U.Y.j.$.^ ^ r ",
"VXvXVXVXmXAX%X+.J.2.6 a 3 a 3 = $ f.oX#X@XXXXX6X3X3X6X8X9XqXqXqXqX:X#XG.F.A.C.A.C._.9X0XY O Y ' S ] 9.t.:.t.p.r.>.N.U.m.-.^ ^ Q ",
"VXCXVXVXVXVXkX6.2.! a a u a > 3 $ w. X|.@X@X}.6X3X@X6X6X8XqXhXhX6X:X[.G.F.A.A.C.M.x.).W.1   5 &.] F ] 9...` 0.r.....m.m.1.~ ^ ^ ",
"VXVXNXcXcXvXcXvXU.N d a i i : 3 + .._.XX#X@XoX6X6X@XoX@X3X8XgXqX6X@X{.F.F.S.S.S.M.a._.N., &   S ,.' T | ..| X.( X.( ) ..;.{ ^ ^ ",
"VXNXCXcXlXlXkXxX<.S a a 6 a 6 3 o D (.|.@X@X+XqX7X:X|.XX;X5X9X9X3X#X{.F.F.D.F.S.V.X.y.[ . 4 2 O ' =.T Y 0.=. .I U U l ) [ [ ^ ^ ",
"cXVXcXcXNXzXkXK.v F s a a 3 6 = o i !.{.#XXX}.6X].q.A.;X>X@X4X3X:XXX{.G.D.D.F.D.l.r.; . @ 4 x # 3 ' *.P h =.w. .U l U ) A ! [ ^ ",
"VXNXNXVXlXCXxX+.G c c n 3 c 3 & O % B.].@X'.S.@X~.].;X>X7X4X#X@X#XXX{.G.F.G.G.D.a.p.N * & 9 B 2 y c ` *.Y g D | X.( A ) A / ! ^ ",
"CXNXNXNXcXCXg.S [ s n a a v 3 # # o u._.XX@XC.M.Q.7X8X8X9X7X>XXX#X[.'.(.G.G.(.S.q.h.B 1 & b B & 5 C M P | ] Z C D D A / k / ^ ^ ",
"NXNXNXNXCXI.9 $.S a f a D c 3 & & + ( _.{.@XG.s.(.5X8X9X9X8X5X:XXX[.'.{.'.(.G.M.q.V.c 1 1 V K # = c n p m  .=.*.] F [ -.C / ^ / ",
"cXNXNXlXZXI.+.$.2.~ d S S a 2 1 9 & t S.}.XXoX@X7X5X8X9X9X8X7X>X#XXX{.{.{.(.).x.q.B.c @ 2 K +.2 # c h p l m  .>.>._ { >.A k / / ",
"cXcXlXlXzXzXR.j.N.' S G x a # 3 b + + p.(.[.OX3X>X>X7XgX9X8X X~.@XXXXXXX[.(.G.q.a.S.c @ 5 L K a = d h g Z T g Y { ,.} _ / / / ! ",
"cXiXsXkX1X<X<X$Xp.! G ! d 2 = b 3 = o Y !.}..X,X,X,X>X>X,X/.W. X;XoX+XXX[.(.Z.8.x.W.c O 9 L ~ b 3 7 f h g P ` s c _ *.{ T P ! / ",
"lXyX%XR.R.$XP.m.y.[ [ d v ; 4 b b a O > B.D.Z./..X,X,X/.b.b. XgX5X4X@X+X[.'.l.7.~.~.D O b v &.v 7 a s s p h T Y f c c S F F ! / ",
"aXaX1XL.U.L.m.g.1.,.} 7 a 7 4 @ v 3 O o i._.a.s.b./.b.b./.,X>X8X5X4X@XoX{.D.8.a.[.~.*.# b B ~ L 5 x C 3 u s g T :.%.,.%.) ) -./ ",
"sXlXiX<XY.m.K.m.2.g.N f S K 1 = c ; & o m OXZ.c.c.c./.,X/..XgX0X0X7X@XXX(.s.7.S. X!.w.1 v B ~ ~ 2 v G 3 1 u g n ,.w.1.w.2...{ _ ",
"sXsXaXyXY.L.P.d.Y.2.6 N ' 1.x # 7 a 6 & $ P. XC./..X,X/.C.>X8X7X8X5X+X].A.7.s.].oX_.t.5 x v ' &.5 a J 3 # + t c D :.h.d.r.{ } ) ",
"sXaXiXaX1XN.5.Y.U.[ S ~ ~ ~ 2.6 7 a J = $ y. Xb.c.b.x.c.,X8X9X9X5X4XXX).v.8.D.}.oX_.f.y v b L %.a & c 1 1 # # % t C ] >.>.) U / ",
"sXaXkXiXL.n.U.1XK.y.! f 1.k.J.^ 6 7 K 3 y n )._.b.a.b.-X7X8X9X9X5X@X{.s.7.C. XoX X_.z.c M x B -.c # ; 1 # # 1 & > = N ;.d.;.) / ",
"aXkXR.n.n.<X1X1XK.-.[ * K.$XK.%.3 b L c 4 + z. X.X,X7X7X9X9X9X>X;X[.C.7.x.Q..X X-X_.x.m c v b %.x = + # # 1 # 1 3 = 8 >.h.>._ / ",
"aX1XH.T.&X1X1XY.g.-.2.-.n.2XJ.^ L B L x a + P _.-X5X7X9XgX9X5X@X|.C.7.s.G.XXoXoXoX_.B.D s G = S M 1 # # o O # , : 3 : G f.2.{ / ",
"iX%XyXiXuXtXI.J.U.d.5.L.n.R.m.N <.K L x x & o B.-X;X7XqXqX5X4XXXC.7.a.F.XX@X@X@XoX}.!.( - F a ; M - # @ O O @ & = 6 c F ! ;.y.;.",
"yX*XyXtX&XU.U.%XuXU.<.$Xm.U.,.[ &.K K v x ,   D _.-X-X3X4XoX[.b.7.v.G.#X3X-X4XOXOX}.).r.u i c > y 4 # @ @   O O # 2 a ' F ] >./ ",
"lXeXR.R.E.<XtXuXcXtX<.U.m.h.[ ! L &.&.K 4 & & o ] ).}._.].Q.v.7.8.'.@X;X-X@X-X3XoX}.}.p.U - s 3 1 5 < O O O o @ 1 7 K %._ G k z ",
"sXkXsXaXiXiXuXlXzXbXj.J.J.-.! ' L $.+.L 2 O 1 #   y t.z.a.7.R 8.D.XXoX-X3X3X3X-XoX}.}.S. .u - 5 2 & & &   @ @ # # 2 v =.2.*.P P ",
"lXlXlXzXlXsXlXlXlXlXI.j.J.N [ %.K $.&.x , . 4 , . X o m E R 8.A.(.oX@X4X3X-X4X@XOXOXOX}.z.j 3 1 , 2 @ & @ O @ O # = 4 S 1.;.} { ",
"lXlXlXlXdXkXlXsXdXxXyXn.g.S d.&.~ $.~ 4 @ . , , X . . c X.8.C.G.{.XX@X4X4X@X-X@XOXOXOXOX!.e.5 1 ,   O @ * @ @ O , a x S &.y.>.:.",
"lXlXlXlXlXkXdXsXaXkXzXk.1.=.d.<.J K J 1 O . , @ . . X c i.M.S.(.{.XXOX4X@X4X4X-XoXoX-XOXOXt.b < , , .     O O # 1 1 1 5 L y.f.;."
};
