/* XPM */
static char *cd93ecef0ecd4a32c017db9ad369f1d5veQi48KxlwXc7a5i[] = {
/* columns rows colors chars-per-pixel */
"64 64 256 2 ",
"   c #010A1D",
".  c #010515",
"X  c #16161D",
"o  c #0E0F18",
"O  c #251C1C",
"+  c #010D22",
"@  c #011126",
"#  c #02142B",
"$  c #091929",
"%  c #151A26",
"&  c #041B32",
"*  c #0A1D33",
"=  c #1A232C",
"-  c #0B2235",
";  c #0B253A",
":  c #08253A",
">  c #122C3E",
",  c #182737",
"<  c #1A313E",
"1  c #0D202F",
"2  c #26262A",
"3  c #362A27",
"4  c #252C34",
"5  c #2A323A",
"6  c #383639",
"7  c #393030",
"8  c #302220",
"9  c #47322A",
"0  c #463B38",
"q  c #4D3529",
"w  c #613D2D",
"e  c #53423C",
"r  c #6C4A3C",
"t  c #082A44",
"y  c #122D43",
"u  c #162E44",
"i  c #153245",
"p  c #1C3344",
"a  c #13344B",
"s  c #1C384B",
"d  c #08375B",
"f  c #1C3C53",
"g  c #133C5C",
"h  c #173B57",
"j  c #0D314C",
"k  c #243443",
"l  c #233C4B",
"z  c #2B3A47",
"x  c #343A43",
"c  c #393E46",
"v  c #233E53",
"b  c #0C3D63",
"n  c #123F65",
"m  c #423F41",
"M  c #1C425D",
"N  c #26444D",
"B  c #3B424B",
"V  c #3A4349",
"C  c #244254",
"Z  c #24445A",
"A  c #2A455A",
"S  c #2C4A5C",
"D  c #2B4654",
"F  c #354957",
"G  c #36555B",
"H  c #2D5558",
"J  c #144264",
"K  c #1C4563",
"L  c #18476B",
"P  c #174C74",
"I  c #1C537C",
"U  c #0E476F",
"Y  c #2C4C63",
"T  c #234D6C",
"R  c #254B66",
"E  c #314E62",
"W  c #2C526A",
"Q  c #385668",
"!  c #235274",
"~  c #295778",
"^  c #385D75",
"/  c #224F70",
"(  c #3B646A",
")  c #3C6373",
"_  c #3A657A",
"`  c #39605D",
"'  c #46474A",
"]  c #574A46",
"[  c #494C51",
"{  c #4A545B",
"}  c #5A5756",
"|  c #5B534D",
" . c #68544D",
".. c #73574A",
"X. c #675956",
"o. c #755D55",
"O. c #654D44",
"+. c #7A645A",
"@. c #69635A",
"#. c #445A68",
"$. c #425E73",
"%. c #585A62",
"&. c #635D61",
"*. c #476A69",
"=. c #446A7A",
"-. c #466776",
";. c #576B77",
":. c #4B7479",
">. c #577979",
",. c #546A6C",
"<. c #67676A",
"1. c #787477",
"2. c #736F70",
"3. c #44675F",
"4. c #875D45",
"5. c #84685A",
"6. c #936B55",
"7. c #886E65",
"8. c #89746A",
"9. c #987666",
"0. c #8A7B76",
"q. c #977C74",
"w. c #976966",
"e. c #A67C67",
"r. c #B06E67",
"t. c #AD785A",
"y. c #C8746D",
"u. c #5C817B",
"i. c #988279",
"p. c #8E8278",
"a. c #B98569",
"s. c #A78877",
"d. c #B38A77",
"f. c #B7927C",
"g. c #A9816B",
"h. c #C5967B",
"j. c #D09077",
"k. c #DEA27D",
"l. c #1B5C8C",
"z. c #185886",
"x. c #135D93",
"c. c #1C5F92",
"v. c #0F5A8E",
"b. c #225A84",
"n. c #255A83",
"m. c #325F80",
"M. c #1A6296",
"N. c #1B6499",
"B. c #196398",
"V. c #25638D",
"C. c #3A6886",
"Z. c #216798",
"A. c #3D7599",
"S. c #396E90",
"D. c #226BA0",
"F. c #446C84",
"G. c #497588",
"H. c #557B87",
"J. c #4B7B95",
"K. c #477999",
"L. c #557E96",
"P. c #526F83",
"I. c #677C84",
"U. c #437DA2",
"Y. c #5B8488",
"T. c #588399",
"R. c #4D809D",
"E. c #64868A",
"W. c #648A93",
"Q. c #648C9A",
"!. c #678A96",
"~. c #6C929B",
"^. c #78979B",
"/. c #798890",
"(. c #4A84A8",
"). c #5A8DAB",
"_. c #5788A6",
"`. c #5E91AE",
"'. c #558EB2",
"]. c #5E93B1",
"[. c #5C96BB",
"{. c #4F8BB0",
"}. c #6793AB",
"|. c #7A9BA6",
" X c #6395B3",
".X c #679AB8",
"XX c #6B91A9",
"oX c #7AA3B4",
"OX c #78A7C5",
"+X c #6FA2C1",
"@X c #8A888A",
"#X c #968985",
"$X c #969698",
"%X c #8C9296",
"&X c #A8958A",
"*X c #B99A87",
"=X c #AA9890",
"-X c #B9A499",
";X c #B4A295",
":X c #839CA3",
">X c #90A7AE",
",X c #BAACA7",
"<X c #B0AEAC",
"1X c #A89FA2",
"2X c #C79B85",
"3X c #D19588",
"4X c #C8A38B",
"5X c #D6A98A",
"6X c #DAB18D",
"7X c #C8A996",
"8X c #D5AB96",
"9X c #D8B499",
"0X c #CDB39A",
"qX c #E5A989",
"wX c #E4B89A",
"eX c #ECB195",
"rX c #C6AEA5",
"tX c #CAB4AA",
"yX c #D7B8A8",
"uX c #D7BDB3",
"iX c #CAB8B1",
"pX c #E6BCA5",
"aX c #F1BDA4",
"sX c #E39F88",
"dX c #DDC5BB",
"fX c #DAC2B6",
"gX c #DAC2AB",
"hX c #EBC4A4",
"jX c #E5C2AD",
"kX c #EDCAAD",
"lX c #E9C3A8",
"zX c #F4C7AC",
"xX c #E4C5B5",
"cX c #E3C6BA",
"vX c #E5CABE",
"bX c #EBCDBC",
"nX c #EBC8B3",
"mX c #F3CDB3",
"MX c #F5CDB7",
"NX c #F3D2BC",
"BX c #F8D3B9",
"VX c #EFD1BE",
"CX c #FCC09E",
"ZX c #8AB1CB",
"AX c #A9B8C4",
"SX c #B5C6D3",
"DX c #CECBCC",
"FX c #E7CCC1",
"GX c #EAD2C5",
"HX c #F6D8C3",
"JX c #E7DCD3",
"KX c #C7D9E5",
"LX c #D7E9F5",
"PX c #E9F9FD",
"IX c #F7FBFC",
"UX c #EDEDEC",
/* pixels */
"I U b.l.I L K g b b b d d T K t > s Z Q -.G l - p G :.!.W.W.!.T.H.G.F._ F.J.G.( W Y W W W R M H M ( ,.*.3.H G N 1 1 $ H 3.u.u.3.",
"P I l.I L P / T b d d L P j t a S #.Q D p D 5 D Y.Y.W.E.E.~.~.Q.Q.~.~.T.H.Q.XXT.Q.T.Q.T.T.Y.T.Y.W.^.u.*.>.:.>.H & 1 $ H 3.>.u.3.",
"I b.I z.b.n.~ L b b / n t y Z Q Q N < ` /.>.G E.E.>.I.H.E.E.Y.W.~.Y.H p < s -.!.!.!.!.Q.XX~.|.|.^.|.u.>.u.~.Y.H & : 1 H ` 3.3.3.",
"z.l.l.b.l.b.I U b P j t s Q $.l < 3./.>X>.N u.E.>.Y.>.>.Y.E.Y.E.~.,.5 k z k < z G ,.Y.E.~.~.~.W.W.|.^.3.( :.:.N > < i H ( 3.3.H ",
"z.l.z.l.z.l.P L / t t A ^ G > { :X:X:Xu.N ( u.u.>.:.>.*.>.>.>.E.^.,.5 V x B F z N 5 H E.T.Y.Y.Y.u.Y.u.( H H H H N N H ( u.:.` H ",
"U I l.l.z.P P J t a E $.s < E.>X^.^./.N ` Y.Y.Y.Y.u.E.u.u.>.E.Y.3.G 5 ' ' [ B B [ { F *.Y.Y.:._ _ ( :.Y.:._ _ H : : N :.:.:._ H ",
"L K I I P P M : h E #.y G :X:X^.^.~.H H ( ( u.G.Y.Y.T.!.!.E.>.5 % 4 ' ' [ [ [ [ } %.*.:.-.( Q ) ( ( _ _ G.J.( > > : j ( :.:.:._ ",
"W ~ ! L ! M t M Q ( < *.>X:X^.^.^.( K _ :.:._ ( G.Y._ H N s , 1 4 7 m 6 2 2 6 ] X.<.>.H.=.) =.=.G._ _ ( _ Y.( N > > M :.Y.G.( ( ",
"R R L / M : C Q Q i -.>X|.:X^.^.( W G._ _ _ _ ) =.A * @ @ * , 1 $ = = = % % X 2 c 1.~.T.G.F.G.C.G.H.G.G.J.Y.-.y i i ( Y.Y.:.) Q ",
"R R W M t Z -.Q - #.>X:X:X^.^.Y._ T.T.R.R.R.:.) l ; = k , 4 k p = , 5 < % % $ % ' >.L.J.G.C.G.G.G.J.J.J.L.T.$.> > i _ H.H.G.G.:.",
"g W h : M $.Q & H >X>X>X:X^.~.) ).].].]..X X}._ ; k k k k k z k k l D N k = % , Q L.L.J.K.K.K.K.K.R.L.J.L.T.Q y i < H =.=.Q :.G.",
"T R : v -.E & l :X~.!.|.^.^.-.) _._._.(._.T.Y.N , 5 k x c k x z z c z z v k = , H.oX.X.X.X.X.X.X.X.X X X X XW a W M _ R.W S Y Q ",
"v : f -.G - ; !.oXY.E.~.W.~.:.^ `.).).).)._.E $ 4 5 x c B B B c x c B z z l u * , T.).).).].`.`.].`. X X.X.XE s W ^ oXT.S S S D ",
": f $.E ; ; H.|.~.^.~.!.W.W.!.) K. X].).T.=., z ' c c c x x c x 6 c c 5 z F z k $ E }.)._.).).).).).)._.).Q.v y u W }.) S G F l ",
"l -.E y - ( |.~.!.!.!.!.W.W.!.~._ J._.L.L.z 4 ' c m c c B B [ F [ c c ' c c v k , i _.}.].`.].).`.}.`.`.}._.v > y ^ XXW Z G D z ",
"-.Y y a M XXT.T.Q.Q.Q.Q.!.!.T.}.T._.ZXZXP.4 5 5 6 c x m c 6 x 6 F <.[ [ [ z c v , > G._._.(._._._._.).).`.L.u > u =.XXW Z A l l ",
"R t h g F.L.L.J.G.G.F.:.F._ =._ ~ Z -.;.l = 4 x 6 4 c e c 6 [ [ B &.[ c B F c z k k .XZXZXOXZXOXoXoXOXoXZXL.> y y -.Q.R v v v v ",
"h G.K.m.! F.J.C.~ ~ R M T ^ C.J.C.j & , , 2 4 4 2 m | 6 e 8.i.} [ x 6 5 c c F c , k P.L.`.XX+XOXZXZXZXZXZX=.* y u |.ZXW Z v l z ",
"].]._.{..X X).U.G.m.T m._..X'.K.R.! > , , % % % 7 +.e 0 s.;X..o.w.#Xp.X.7 c c c 4 * * # # & & & & : y t * t > , y P.Q.v f v k l ",
"]._..XOX].'.].L.C.! S.).[.[.[.K.C.) s = 2 2 % X | @.3 7.7X4.9.s.8XuXaXuX#Xe m x 4 4 * # & & : * : ; > y y > , ; y & j K a p p p ",
"T.).OX+X].U.L.S.~ K.'.'.{.'.'.'.C.~ l , 5 7 % ] 2.q r *Xw.g.f.9XnXaXnXnXpX7.9 m = = * + + # # # & & * y ; , , ; y s J.F.s y u z ",
"_.`. X X).K._ ~ K.).{.(.{.{.'.[.K./ v , '  .3 0.O.q s.g.f.f.8XmXaXnXaXnXpX9.3 c 2 % * + # # # # & & ; * * * - ; ; m.L.F.R u k D ",
"_.T.). XT.~ ! J.{.U.U.{.U.{.'.U.{.~ h < [ 9 e 5.q e 5.f.7X4XMXzXmXzXmXaXpXe.3 7 2 % % + + + # # # & & * * * ; * u F.L._.C.Z D z ",
"(.)..XT.R h R F.L.U.U.U.U.U.U.U.U.K.h k e 8 o.7.q 5.7.7.9.jXBXmXMXBXMXnXpXq.3 % 4 % % # + + + # # # # & * * * * u C.L._.T.Q D D ",
").+XT.K a Z Y W F.K.K.K.U.U.U.U.(.K.W k e ..9.6.w ....5.o.w.9XBXMXBXMXuXrXq.3 % = % # + + + + # # # # # # $ * * t m.F.L.L.E v v ",
"+XR.g t f Y R S Y C.S.S.A.U.U.U.U.K.^ 4 <.*Xg.4.6.9.r ..w.e.8XkXmXpXq.7.9.7.3 % = % # + + + + # # # & # @ # # & ; Q C.F.L.v s c ",
"_ h M : t A A A C R C.S.K.S.A.U.U.F.Q k 9 g.4.4.4X2Xd.d.e.*XwXzXlX&X..o.X.8.7 X % % + + + + + # # # # # @ # # * & h m.m.m.a s v ",
"h K C.! & ; l v D v T C.V.S.S.K.K.m.c m 8 6.4.j.2X3XaXpXeX9XwXMX9Xd.q.8...+.7 O 2 % + + + + + + @ @ # @ @ @ # & # t ! m.^ u u k ",
"L C.~ C.R & y s l v h ~ m.m.C.F.C.F B 0 9 5.t.t.j.zXzXzXaXaXaXzX8XrXtX3X7X*X8 8 = o + + + + + # @ @ # # + + # @ # # Z ~ Y t u u ",
"! ~ ^ ~ ^ h y k p p u v $.P.P.I.I.' X.o...6.4.t.eXzXmXmXzXeXaXzX3XpXcXpXyXq.3 0 3 + + + + + + + @ + + + + + @ @ # # ; T v ; u u ",
"^ T ~ ! ~ ~ u u k #./.%X$X$X$X=Xi.5.q.e.9.6.t.k.eXCXCXaXeXeXaXaX3XbXHXpX8X5.9 0 [ c o + + + + + + + + + + + + + + @ # v v ; u u ",
"~ ~ T ~ R W A ;.@X$X%X@X@X#Xq.&X&Xr.e.e.9.4.t.j.qXeXqXqXeXqXaXaX3X8XaXuX3XO.0 e %.<.{ $ + + + + + + + + + + @ + + @ # t u * ; y ",
"T ^ T T W -.<X,X<X$X0.2.<.2.q.q.f.a.t.a.e.4.a.k.k.sXeXaXaXsXsXeX3X3XaX8X7.9 e | &.<.<.#.%   + + + + + + + + + +   + + & > : ; > ",
"L / ! R #.<X<XrXrX,X1X#X2.&.o.7.i.d.g.g.9.4.t.5XqXsXj.sXeXaXeXsX3X2X3Xq.0 0 ] } &.2.2.2.%.o . + + + + +       +   + + # v v * ; ",
"~ K T v 2.,XrXtXiXtX,X1X#X2.]  .5.9.e.9.6.4.4.j.qXqXsXr.y.y.3X3Xd.*Xq.9 7 0 ]  .o.8.8.0.1.&.%   + +     + +   +   + + * E Q > * ",
"T R R S @XrX0XtXyXtXrX1X&X0.X.X.] o.5.5.......6.j.qXeXy.y.y.r.w.e.8.9 3 6 m ] O.<.7.8.8.0.0.2.7 . . +               + ; E ^ a & ",
"K W n F $X-X4X0XpXcXFXFXuX-X&X=X8.X. .e 9 9 q q r s.h.j.r.w.w.q.2.3 2 6 0 9 0 ] o.5.w.q.g.i.p.p.&.2 +             + + * A $.v & ",
"R n R D #X2X8XpX8X8XyXuXgXfXiXiXtX,XrX=X0.7.5.o.5.e.&Xe.e.r.w.o.8 O 7 7 7 7 3 9 e O.+.9.q.i.0.p.#X@X&.% .     +   + + , v Q v y ",
"R M R v 0.*X2X2X2X4X9XyXjXyXuXuXuXuXuXuXdXcXdXFXcXpXyX8XrXrX7X=X&X#X#Xp.@Xi.0.o.o.+.7.8.8.8.p.p.0.0.@XI.x . +         * v W E v ",
"R K M F 0.*Xf.8XnXVXbXpXyXxXnXvXcXxXcXxXcXcXcXaXuXFXuXcXcXcXcXnXFXFXFXvXdXdXdXdXfXuXuXiXtXrX,X,X-X=X#X#X#X&.o .     + # v v E Y ",
"K K K A 8.*X8XpX9XyXpXNXNXjXnXbXFXFXnXFXVXNXNXBXHXHXHXBXBXHXBXNXbXMXvXvXbXbXvXvXbXFXFXvXvXdXvXdXdXuXiXrX1X1X1.o .     @ u v v v ",
"K R K A %.#XxX3XwXBXMX7X7XpXHXHXHXHXHXHXHXHXHXHXmXmXBXBXBXBXBXBXHXHXHXHXBXmXNXVXVXVXGXGXVXVXVXvXFXFXdXuXfXiX,X@X% .   @ t u v v ",
"T T K A [ ;X4X4XzX2X2XyXBXBXBXmXBXHXHXHXHXHXBXMXNXNXBXMXBXBXmXmXzXzXaXMXmXBXmXBXNXNXNXVXVXVXVXVXFXFXFXbXFXdXfXDX$XX . + ; t u v ",
"W T E E { #Xd.aXh.4XzXmXpX8X8X4X4X4X2X&Xs.f.&X+...7.d.2X9XwXwXwXwXaXzXaXhXhXkXkXkXmXmXmXBXmXNXNXFXGXFXFXFXFXdXFXFX<.. + * t * y ",
"Q E #.#.{ &.0Xd.h.zXwX5X9XpXuXpXyXrX7Xr. .3 X % X o 8 5.f.*X2Xf.f.h.h.6XwXkXzXhXhXhXhXkXkXkXkXkXMXMXMXVXbXnXnXvXGX#X. + # ; * ; ",
"{ { { #.%.2.8.q.jX5X5X6XpXnXaXuXpXuXtXrX=X} o $ % ' &X8X0XyXyXyX8X4Xd.6.5.i.9XhXgXhXhXhXhXhXhXhXaXaXzXmXnXkXbXbXJX&X. + + * & & ",
";.;.,.#.#.[ ' ] q.f.5X6XwXpXpXpXuXpXyXrX-X#XO 3 0.rXyXyXuXuXfXuXyXtX*Xq.7 O ' u.;X0XhXhXhXhXhXhXwXhXpXpXwXhXzXbXJX@X# u u a h a ",
"PXPXPXPXLXLXSX$X1X7X2X5X6XwXpXnXaXuXuXyXrX-Xp.-XuXyXuXuXuXuXfXfXyX7X=X] X 5 5 7 e @.s.,X0XgXhXgXgXhXpXwX6X9X9XuXiX&.v A Q Q W Q ",
"KXKXLXLXPXPXIXIXIXUX7X4X6XwXwXwXkXkXkXkXgXgXfXgXgXfXfXdXfXdXdXgXrX,Xp.0 c 6 x V 5 4 2 7 e 2.s.4X7X7X7X;X*X;X&X#X%.F Q G Q Q Q $.",
"W Q ^ =.-.;.;.;.I.1.1.*X7X6X6XwXhXkXkXkXVXnXvXgXfXdXdXcXvXdXfXtX-X,XUXIXPXLXKXSXSX<X>X$X%Xp.@X=X=X&Xi.8.X.| | [ [ #.#.#.Q #.#.#.",
"g h g g g h h i p < = } -X5X6XeX6XhXkXkXbXbXxXnXcXFXFXFXdXdXgXtX<X0.>X>X<XSXSXKXKXLXLXPXIXIXIXIXIXIXIXUXIXUXIXUXUXLXKXSXSXAX<X>X",
"d d n L J K J M h h f = | 7X5X5X6XgXkXkXkXbXkXdXFXGXGXFXfXfXtX,X2.# & : t t i i p N A G #.*.P.I././.>X>XAXAXSXKXLXLXPXPXPXPXPXPX",
"g J L P T ! ! L K K R Z < | ;X6X6X6X9XhXkXkXkXVXGXGXJXdXfXiX,X%X; t a Z M M f M h a j h a a j a y j j j j a h K ~ m.S.F.J.L._. X",
"L L J U J J J J J n K K D 4 | -X6X6X6XkXkXNXHXHXHXGXFXFXgX,X<XV : j R R R K M M M g g d b g g g J J J J L L n P n.z.n.n.~ z.n.! ",
"l.z.I P U L L K M g M S C z 2 } ;X6X6XwXkXGXHXHXJXGXFXdX,X<X;.: j d L T L L J L L P P U b b n b U U L L b b b n n ! n./ I ! ! n.",
"l.l.l.b.I I P ! L J M S W G G N @.;X0X0XgXkXHXHXHXFXFXfX<X%X> y g b b d d b J U U P P P n.z.n.n.~ z.I z.I P U U P n.P n P P n.n.",
"M.M.M.M.c.c.c.c.b.n.~ ! / T R C C ,.,X0X4X6XkXHXNXVXvXfX%Xp t J L P P z.P U z.U P P z.z.z.z.z.z.z.z.z.v.l.v.z.x.z.z.z.z.v.v.z.z.",
"x.N.N.N.N.c.c.N.M.V.Z.n.n.b.I ~ m.W ,.<XgX6X9XkXNXJXJX$XN t J I z.z.x.c.l.l.x.c.c.c.v.b.x.z.c.v.v.z.v.x.x.x.x.x.v.x.x.x.v.v.v.v.",
"N.N.N.N.N.N.x.N.N.c.N.Z.Z.c.V.c.V.V.~ :.<XfXgXgXGXJX>XN j U V.l.c.c.N.c.c.N.c.c.Z.c.Z.N.c.c.N.N.c.c.N.B.x.c.x.x.x.x.c.x.v.v.v.v.",
"N.N.x.N.N.c.B.N.B.B.B.x.c.c.N.B.M.c.Z.n.) /.$X%Xp.>.H L I V.Z.N.c.Z.N.N.N.N.x.N.x.N.x.x.x.N.c.N.N.x.N.x.N.N.N.N.x.x.N.x.x.x.x.x.",
"M.x.N.N.x.N.N.N.B.B.B.B.N.N.c.N.M.M.M.M.V.~ _ ~ ~ I Z.Z.Z.Z.Z.D.N.Z.N.N.N.N.N.N.N.N.N.B.B.B.N.N.N.N.N.N.N.x.N.N.B.B.B.B.x.x.x.x.",
"N.N.N.N.N.N.N.N.B.B.B.B.x.N.N.N.B.B.M.M.B.B.B.N.D.N.Z.Z.N.Z.Z.N.N.N.N.N.N.N.N.N.N.N.N.B.N.N.N.c.c.N.N.N.N.N.N.N.B.N.B.N.N.N.B.x.",
"N.N.N.N.N.N.N.N.B.B.N.B.N.B.B.B.B.B.B.B.B.B.N.N.N.B.Z.B.N.N.Z.N.Z.N.N.N.N.N.N.N.x.N.N.N.N.N.N.N.N.N.N.N.B.N.D.N.N.N.N.N.N.B.B.N.",
"N.N.N.N.N.N.N.N.N.N.N.N.N.N.B.B.B.B.B.B.B.B.B.N.B.B.B.B.N.N.N.N.Z.N.N.D.N.D.N.D.D.N.D.N.D.N.D.N.N.D.N.D.D.D.D.D.D.D.D.D.D.D.N.N."
};
