/* XPM */
static char *e359a36a1d9a4f2f8a9516a40c64924a2Xq0AnQ6Lj2tEwl6[] = {
/* columns rows colors chars-per-pixel */
"64 64 247 2 ",
"   c #251811",
".  c #16291C",
"X  c #33241B",
"o  c #183828",
"O  c #152F22",
"+  c #292927",
"@  c #362D2B",
"#  c #352B27",
"$  c #3A322C",
"%  c #3C3433",
"&  c #383739",
"*  c #2F2F32",
"=  c #0A170D",
"-  c #44372B",
";  c #443A33",
":  c #4A3D34",
">  c #443C38",
",  c #503B2E",
"<  c #1E4632",
"1  c #254A36",
"2  c #314D3A",
"3  c #4B433B",
"4  c #484339",
"5  c #56463B",
"6  c #59513E",
"7  c #66493A",
"8  c #3C3C45",
"9  c #3B3D48",
"0  c #423F44",
"q  c #3E414B",
"w  c #3A514D",
"e  c #376B50",
"r  c #4B4442",
"t  c #43434C",
"y  c #494649",
"u  c #564C48",
"i  c #5B534C",
"p  c #575349",
"a  c #444652",
"s  c #4C4C55",
"d  c #4B4D5B",
"f  c #464957",
"g  c #514F54",
"h  c #534F56",
"j  c #4D515D",
"k  c #4D5155",
"l  c #535355",
"z  c #5C5553",
"x  c #53535B",
"c  c #5B5A5C",
"v  c #575959",
"b  c #455648",
"n  c #665849",
"m  c #775B4C",
"M  c #655B57",
"N  c #6E564D",
"B  c #44785C",
"V  c #536D5A",
"C  c #66614C",
"Z  c #6B6558",
"A  c #786658",
"S  c #7A715E",
"D  c #6C6C55",
"F  c #4D5362",
"G  c #525563",
"H  c #555964",
"J  c #5D5C62",
"K  c #555B6B",
"L  c #5A5D6B",
"P  c #565766",
"I  c #5A5F71",
"U  c #4C4F60",
"Y  c #625F64",
"T  c #5D616C",
"R  c #497B62",
"E  c #5C6172",
"W  c #5F6578",
"Q  c #557A64",
"!  c #636264",
"~  c #64646A",
"^  c #6B6A6D",
"/  c #6B6767",
"(  c #776B66",
")  c #7A7567",
"_  c #636573",
"`  c #656974",
"'  c #6B6C74",
"]  c #656A7B",
"[  c #6B6E7B",
"{  c #616679",
"}  c #6D717C",
"|  c #6E7374",
" . c #737275",
".. c #73747C",
"X. c #7A7878",
"o. c #716F74",
"O. c #86695A",
"+. c #85725D",
"@. c #836E66",
"#. c #877868",
"$. c #957868",
"%. c #867B73",
"&. c #967D72",
"*. c #9A7467",
"=. c #4B8466",
"-. c #53896C",
";. c #5B9677",
":. c #5A8C72",
">. c #629C7D",
",. c #63947A",
"<. c #708E75",
"1. c #5FA17D",
"2. c #63A17F",
"3. c #88826C",
"4. c #97846B",
"5. c #888578",
"6. c #988877",
"7. c #99927B",
"8. c #88967C",
"9. c #A68778",
"0. c #A8967C",
"q. c #B2957E",
"w. c #AB8A77",
"e. c #6D7383",
"r. c #727582",
"t. c #747984",
"y. c #7C7D84",
"u. c #7A7D8A",
"i. c #737A8B",
"p. c #72798D",
"a. c #807E83",
"s. c #7D818C",
"d. c #7F8287",
"f. c #7C8394",
"g. c #7D869B",
"h. c #6D9B82",
"j. c #69A786",
"k. c #74A98A",
"l. c #79B896",
"z. c #73AF90",
"x. c #7F89A2",
"c. c #7DC29C",
"v. c #8C8A85",
"b. c #83848C",
"n. c #8D8C89",
"m. c #888586",
"M. c #918E8A",
"N. c #978B83",
"B. c #999588",
"V. c #838693",
"C. c #838A9B",
"Z. c #8A8C96",
"A. c #989796",
"S. c #8C938F",
"D. c #A58E83",
"F. c #AB9C83",
"G. c #A69788",
"H. c #B79988",
"J. c #A59C94",
"K. c #B69D93",
"L. c #86A88B",
"P. c #85BA9B",
"I. c #97AF98",
"U. c #A9A48B",
"Y. c #B2A385",
"T. c #B3A58B",
"R. c #B6A98D",
"E. c #BAAA8D",
"W. c #BBA48A",
"Q. c #ACAB93",
"!. c #AAA599",
"~. c #BBAC92",
"^. c #B6A897",
"/. c #BEB194",
"(. c #B5B49B",
"). c #BCB49C",
"_. c #B9B99E",
"`. c #B2B297",
"'. c #848DA4",
"]. c #8993AA",
"[. c #979AA7",
"{. c #8D98B2",
"}. c #959DB6",
"|. c #9AA2B8",
" X c #96B0A5",
".X c #A8A7A6",
"XX c #B6ABA6",
"oX c #BCBBA2",
"OX c #B7B5A9",
"+X c #A6A9B6",
"@X c #B9B8B6",
"#X c #ADB4B2",
"$X c #C19D8B",
"%X c #C4A68C",
"&X c #C6A996",
"*X c #C2B395",
"=X c #C3B599",
"-X c #CABB9D",
";X c #C9B69B",
":X c #D5B49C",
">X c #D3AD9C",
",X c #CBBEA3",
"<X c #C7B8A6",
"1X c #D8B9A5",
"2X c #C4BDB2",
"3X c #D2BDB1",
"4X c #C8ADA2",
"5X c #E0BCA8",
"6X c #88C5A4",
"7X c #9DCEB2",
"8X c #AFCBB6",
"9X c #82C59E",
"0X c #CEC1A4",
"qX c #C4C3AA",
"wX c #CDC3AB",
"eX c #C7C7AC",
"rX c #D6C6AA",
"tX c #C8C6B8",
"yX c #D8CAB6",
"uX c #D9D2B7",
"iX c #CFD0B1",
"pX c #E6C5AB",
"aX c #E7C9B5",
"sX c #E7D5BB",
"dX c #F2D1B6",
"fX c #9CA7C1",
"gX c #B7B9C6",
"hX c #A8AEC5",
"jX c #B5CDC5",
"kX c #BAE6D1",
"lX c #C9C9C6",
"zX c #D6CDC6",
"xX c #D7D6C8",
"cX c #C8CAD5",
"vX c #D7D7D5",
"bX c #CDD1C8",
"nX c #E8D8C6",
"mX c #E5D7D0",
"MX c #CDE5D4",
"NX c #E7E4D8",
"BX c #F4E9D3",
"VX c #E6E6E7",
"CX c #F9F4E9",
"ZX c #FEFEFE",
"AX c #F6F7F6",
"SX c #EDEBF0",
"DX c #D6E8E3",
/* pixels */
"V.V.f.s.u.s.y.s.s.d.V.Z.|.+XcXgX[.m.a. .o.^ / J c Y c v x v Y ~ r.y.r.' e.V.cXZXZXZXZXZXZXZXZXVX+Xa.a.p.e.I I e.F K F e.e.{.fXfX",
"b.V.s.b.b.u.s.s.y.b.Z.[.[.[.A.+X.Xm.a.X.o./ c J T c x x v J ~ ' ....[ ] e.Z.hXVXZXZXZXZXZXZXSXgXA.a.p.p.e.K K I K K e.e.p.{.fXfX",
"s.s.s.s.b.s.b.b.b.Z.[.|.+X[.s.t.Z.A.a.X.o.! ! ~ J x v J J ! ^ } ..o.] ' p.'.|.gXcXSXSXSXVXvXgX[.a.p.e.e.e.F I K K K K p.{.fXfXfX",
"s.s.u.s.u.b.b.Z.Z.Z.+X+X|.[.Z.y.Y X.b.X./ / ^ J v c J ! ! ~ } ....~ E [ p.'.}.hXhXcXcXcXgX+X[.a.a.e.e.I K K K K K K e.p.{.fX{.{.",
"t.s.u.b.[.b.Z.A.[.+XhXhX+X[.S.o.~ Y ! o.o.^ J M ! ~ ! ! ~ ^ } ..e.F U e.a.{.}.fXfXhXhXhX|.Z.C.a.p.e.I I K K F F F K p.].{.{.{.p.",
"e.e.t.s.#XZ.V.+XlXcXcXgXgX|...^ ~ ~ J J ' ~ ~ .. .^  .^ ~ } e.<.P U e.e.'.{.}.}.fXfXfX}.Z.u.p.r.e.I I K K U F F F W x.{.{.{.p.e.",
"[ [ } ..y.b.[.VXZXZXZXvXcX[.' ' ^ ~ ! J J Y %.t.X.X. .' } d.t.E P K e.p.p.{.}.}.fX}.}.a.p.e.e.[ e.I P P F U U U K s.].{.x.x.e.U ",
"` ` ` } ..y..XZXZXZXZXZXvXn...^ ~ Y J Y x g x X.m.y.....d.e.[ T P P p.p.{.{.}.}.}.{.'.e.{ { _ { P U U P U U U U W f.x.{.x.e.F U ",
"_ _ _ ] [ r.Z.VXZXZXZXZXAX.Xo._ Y J J x h x s l o.n.b.d.r.r.} P U P e.p.{.{.{.{.{.x.f.W I I E K K U U U d U j H e.g.g.Z.s.K G a ",
"' Y _ _ ' e.a.gXAXZXZXZXAX.X..~ J J h d x x f h k o.b.t.u.s.T x U I p.x.x.{.{.x.x.g.] K K K P P U f U U d w d E s.g.g.f.T w 9 a ",
"r.o.o._ _ ' a.+XcXVXSXSXlXZ.o.Y J h h h d s x J J ' T s.Z.} L G F e.p.'.{.x.].x.g.e.K K P P G U U f f q q w F e.f.g.s.T a q x ~ ",
"..[ ...._ r.[.|.+X+X+X#XA.X.~ Y x x d s s x x x ' H K ` t.s.' L E p.p.x.x.{.x.g.f.E H F U F U d f U f q q f W t.s.e.[ T L a h ~ ",
"..o...r.r.a.}.}.|.].Z.a...Y Y P d h s h h h s ' L x I e.I U { ] [ i.f.C.'.'.g.f.W F F F j j U f f f 9 f f F { e.e.} T H J x 8 J ",
"o.o.t...u.'.}.}.[.a.o._ Y Y Y x h d s s d d J ' d L W W K 0 d ] r.u.V.C.g.f.f.e.K j j d d d d a f f f f w T } t.t.] x k s ! J ^ ",
"....a.u.a.}.}.[.C.r.Y Y P h Y h h h h s d s Y P G I W K f 9 G P } f.f.g.g.f.e.E d k f d d d d d U q 9 9 x d.b.f.d.| ' ^ ^ ' ^ / ",
"o...m.b.[.[.}.'.y._ Y Y Y x P d d h 0 a f s h L L _ E d 0 0 h P ` e.f.s.s.e.W j f f k d j F d f 9 9 9 q T } d.d...~ / ~ ~ / / / ",
"6.J.XX.X[.+X[.C.[ Y Y Y Y x x s 0 0 0 U h U P r.] ] Y o.o.Y x Y ~ [ r.u.t.] P f d h U U a V.C.a 9 9 9 U K T |  .~ ~ ! ! ! ~ ! T ",
"zXzXmXVXcXhX[.u._ I P h P h P h 0 U 0 s x Y r.a.r.^ a.Z.a.a.a.[ ` ] e.] _ L d d s 0 0 0 0 cXcX9 q 9 q F H T H ! ! T T T ! Z ! Z ",
"aXaXZXZXZXVX[.r.Y Y P Y h h h d h 0 0 h Y [.gXvXgX[.[.a.' Y a.a.' _ _ Y L c a 0 0 8 / z 0 u.e.0 9 9 U F H G a k c c c Z ! J l b ",
"4XzXSXZXZXZXXXo.Y M h 0 h h h 0 K..Xh h Z.AXZXZXZXvXN.o./ o.' a.y.Y ' ` P 0 8 8 8 %.mXXX0 f 9 9 9 w F F j a 8 f v c c v y 0 v y ",
"%.M.@XAXZXvX@XJ.D.a.( J 0 h 0 a.nXaXK.u lXZXZXZXZX@X@.o.@.' / a.a.[ ~ G x t 8 8 h mX5XmX( * 0 9 9 q j x k q * 9 g y & % * & / l ",
"] a.Z.hXXX@XXXM.a.a.a.A./ 0 A mXaX1X3X/ J.ZXZXZXAX+XK.4X4XK.%.P y.Y s G J x a M @.1X1XnXXX% 8 * 9 w k k w * * * * * * 2 r p u 4 ",
"e.a.a.a.a.XXa.@.o.( Y / a.M &XmX1X>XK.M o.@XVXSXmX4XaX1X1X3X3X@.M  .~ J l x Y / J.&X$X>X3X%.% 8 f k k y 8 & * * & r r r 3 u 4 4 ",
"e.a.a.o..XJ./ z N N h z @.a.3X&X&XK.J.( Y u.Z.XX[.XXaX>X1X5X5XK.p .. .^ ~ / / Y N.N.H.&X^.^.c & a s s v y.& * * % & % ; 4 3 4 : ",
"e.i.[ J J.%.i @.&.A h 0 0 @.a.a.D.G.N.~ _ } ' a.%.G.D.4XaX>X$Xa.z / / J c v c c z ( N.%.a.&.^ & y y r Z.vX& * @ @ ; ; ; : 3 3 : ",
"e.e.P Y .X%.a.5X1X4X$X*.0 7 @.*.( A 0 P _ _ c X./ %.@.@.a.O.@.@.z ! v v l v c Y J z i @.N @.) y r r & g c % @ # # ; ; ; : : : ; ",
"[ I h M a.&.3X1X5X5XaX3XO.0 @.@.0 0 h I _ L t ^ o.@.@.( O.O.O.*.z ! l z l k l 0 & % @ M ( p / p 4 & ; % @ @ # # # # ; - ; , : 4 ",
"_ P 0 0 N a.1X5X5X5X5X>XD.0 h 0 0 0 ' e.L f 0 g @.D.a.%.>Xa.*.a.M v l y & r y & y h a h / M ( M > % % @ @ # # # # ; : ; 3 3 3 3 ",
"P h ' 0 z XX>X$X5XaX5X5XK.h i 0 0 0 hX[.x t 0 y / K.$XD.5X&X$X$XZ 0 & & 8 .XM.g i 0 0 i g g M Z u % # # # # # # $ 3 3 4 3 4 4 3 ",
"0 0 lXY z 4Xa.O.*.$XH.*.a.N h % 0 P u.i.s 0 & 3 M K.>Xa.5Xa.a.a.i 3 3 r 3 ^ M 3 : 0 z 0 4 4 y r y > + # # # # # $ 3 u r 5 u p l ",
"M 8 8 0 D.3X*.O.@.a.*.O.*.( 0 0 U _ _ Y Y ( 5.N.a.N.D.N O.7 @.*.%.uX`.U.B.6.M : : i % # $ ; 5 # & r @ @ @ $ $ $ $ r l v l k l l ",
"vX@Xn.( XXzX$X&.$X>X*.O.&.*.u 0 d _ m.2XNXNXNXzX3X&.A 0 O.N u h D.BXBXBXCXCXmXD.i 0 + N D.K.K.@.% @ % ; ; ; $ % $ r V k v V v v ",
"vXvXNXzX4X5X5X5X>X>X>X$XH.&.M ^ A.xXCXCXNXyXwXK.D.@.u M N ( i - ).yXuXsXnXsXsXBXtX$ n aXaXaXpX5XA X % > 3 4 > ; % r c v l  .! / ",
"cXzXlXzX3X5X>X$X5X5X>XdX&X4.zXCXCXNXuXuXrX;X=XU.N.M ; 0 0 h > - 0XuXrXuXuXuXrXuX<X- &.pX5X5X5X>XH.: ; r u u 3 ; & p ^ | <.5.v.v.",
"zXlXzX3XaXK.*.&.$X$X*.$X&X9.^.yXyX2X0X,X=XE.=XK.G.( ; % 0 : + u rXsXrXrXrX0X=XeXQ.5 q.:X5XdXaX1X&XA : u / ( ^  .5.v.n.n.n.n.v.v.",
"lXlXlXlX3XD.O.$.O.O.&.@.H.4.D.<X,X0X0X=X~.E.~.T.G.S h > @ # @ @.sXnXsXrX0X/.E.*XR.m w.&X>Xq.O.q.>X$.@.5.5.v.M.M.n.n.n.n.n.n.n.v.",
"tXtXlX2XyXD.&.O.*.*.O.*.$.A U.).=X<X-X*XR.E.~.R.G.S p M : , n F.uXyXrXrX-X~./.R.F.5.$.N w.*.7 *.%XF.K.6.v.v.v.v.n.M.M.n.n.M.n.v.",
"2XlXlX2XzXXXD.H.*.a.$X*.m #.T.~.R./.=X*XR.E.E.~.G.#.5 Z 6 5 S T.4.,XrXwX).R./.U.G.4.S 7 *.5X*.w.>X%X&XN.N.v.n.J.!.v.B.M.S.M.M.M.",
"tXtX2X2XVX3X&.>Xa.$X$X*.#.6.T.~.Y.R.-XE.T.E.E.~.U.6.r ( M 5 6.U.;XsXuX0X/.R.R.U.0.4.O.O.$XdX>XdXpX$X1XG.v.M.n.!.tXN.B.A.S.M.S.B.",
"xXmXxXNXzX2XH.$X5X3XD.H.D.%.G.R.0.0.*XE.T.E.W.~.Y.G.i i %.5 W.=XiX0X0X0XR.U.Y.R.0.$.w.>X$X>Xw.*.>XH.1XG.N.M.B.B.1X4XG.B.A.A.B.A.",
"eXuXxXNX8XB..X5.D.6.v.@X.XG.G.F.F.0.q.q.q.q.`.-XE.G.) 4 ) 6.=X;XyXuX~.R.R.T.F.Y.7.4.0.w.O.7 *.m 9.w.9.B.M.B.J.^.aXaX=XU.!.A.J.A.",
"oXoXuXNXqX| .XI.( A .X@X@XOXU.0.0.7.0.w.q./.R.*X*XU.3.: #.~.;XrXuXuXwXXXQ.R.0.U.4.0.9.m 7 *.&.O.4.#.B.A.A.J.K.,XaXdXdX/.B.B.M.n.",
"oXoX!.tXvX5.X.A.v.<.^ OXOXXXU.B.0.0.0.4.0.0.E.*X=X/.F.p ) ~.rXrXuX,X<X).T.R.0.7.7.7.S m O.>X5X1X$.N G.J.!.U./.1X*XpXdXpX<X@X8X2X",
"(.Q.%.D i N.( <.X.T Z !.@XOXB.) S R.*X4.Y.0.`.*X*X)./.#.D R.=X0XuX,XwX,XE.R.0.3.6.#.D A D.*.$X&Xm 6 G.M.J.!.:X>X5XdXdXdXsXuXtX#X",
"(.(.Q.3.# 5.3.C A M S XX#XXXB.z 6 S %X%Xq.Y.*X*X*X=X=XR.n U./.rXrXwXrX0XR.U.7.S ) <.X.p $.H.1X9.- +.<XQ.U.^.&X%X:X:XpXdXsXsX(.P.",
"(.oXeXoX3.S 0.A @.n %.OX`.XXA.J Z S q.-X*XY.E.*X=X*X/.,XS U.,X0X0XrXrX=XU.0.4.Z X.m.5.%., 6.$., X F.2XoX8X,XW.pXpXpXpXpXdXnX8XP.",
"(._.iXqXOXD $.0.&.S `.OX.XXXA.Y <.mX*X-X*XY.E.*X*X*X*X).7.3.-X0X-XeX,X/.R.7.S D X.v.X.`.n   X   7 -X_.L.iXBXpX:X%Xq.%XpXpXsXI.2.",
"(.(.-X0X8XU.&.;XT.OXqX`.OX!.J.Y y.J.*Xq.-XY.E.*X*X/.~.~.7.D eX*X,X-X-X/.U.4.) ) ) 5.) !.bXr   # 4.0X8.I.8X_.0.3.7 3.4.0.q.*X<.=.",
"_.`.`._.qXeXR.wXeXwX7.z eX(.A.! ' A.J.4.:X%XE.*X*X/./.0X0XS /./.0X*X*X).U.#.qXbX8X.XS..XCX=X6 m R.0.<.l.6XI.8.-.4 8.8.<.D D 2 =.",
"8X/._.Q./.8X-XQ.3.C p 5.(.OXoX@X3XXXK.;X:X%XE./.*XE.E.0.q.3.0.eX,X/.1X;X7.3.xXxXbXbXOXD NX8XD 3.U.<.2.c.6X6X7XI.=.8.P.L.<.V < e ",
"_.).`.Q._.(.7.C D 6 D !.(.(.2X<X&X&X>XpXdX*X%X*X*XE.E./.uX7.7.rX/./.1X;X3.B.vXbXlXtX!.# bX.X4 8.8.<.P.9X9X9X9X7XP.2.2.k.z.9X;.2 ",
"iX_.U.`.U.(.Q.U.`.B.8.U.`.(.Q.u &.rX:X:XpX*XW.*X*X*X-XiX0X4.3.0X/.*X%XW.S Q.VXvXvXxXv.) NXI.+ V 8.P.c.c.c.9X9XP.7Xl.2.l.1.c.z.c.",
"iXuXiX`._.`.`._.(.`.(._.^.oX!.n Z G.9.q.:Xq.E.=X/.*XrXiXE.E.A /./.0X:X-Xn B.ZXNXVXU.C ) NXh.Q k.2.9Xc.c.c.c.9Xl.z.6X1.1.=.1.1.c.",
"uXiXiXoXqXQ.`._._.qXqX).`.(.!.Z !.G.A N $.4.W.=X*X=X0Xq.-X-XS 7.rXdXdXpXn M ZXCXvX<.3.8. Xh.P.>.;.6Xc.c.9X9Xl.l.h.6Xj.e e ;.1.c.",
"8XoX`._._.`.`.`.oX<XoX`.oXU.B.OXCXzX<X6.+.+.R.=X*X-X*X-XrX-X3.C 1XpXpX:XZ M CXAXlX<.<.<.:.j.l.j.1.9Xc.9X7XMX7X9X;.>.z.=.1 =.1.-.",
"3.6 3._.`.U._.`.=X8X`._._.G.8.D v.B.A.3.m O.q.=X*X-X*XrX*XiX3.- *XaX%XW.Z 3 vXAX8Xd.<.:.=.j.j.l.j.c.c.7XMXDXkXP.;.=.;.=.< e 1.=.",
"qX`.`.oXU.0.oX_.qX/.^._.Q.B.U.2 M 5.Z # S O.q.-X*X*X0X-X-XiX7.- 4.&XN +.u + tXAX@XQ :.:.;.j.z.j.j.l.c.6XkXDXP.z.j.e -.-.o 1 1.=.",
"eX_._.oX`.8X_.qXiX_.).Q.7.Q.).C i @Xz - F.$.q.-X-X-X0X*XrX-XF.4 A @., 5 $ + A.8Xh.R ,.h.;.1.j.j.;.j.l.6XkXMXjXz.l.=.R -.w O -.=.",
"(.Q._.oX`.oXQ.7.iX<XoX8.3.Q.`.5.$ !.+ Z &X$.Y.0X%X-X-X0X0X-XR.6 n +.6 4 ; % V <.-.-.j.:.;.1.1.j.1.j.j.6XkXjX7Xz.;.j.e R w o B R ",
"Q.`.qXoX`.`.(.) 8.oXoX3.5.Q.U.B.%.J.  D.E.4.&X-X*X0X-X-X*X-XR.#.S #.n ; 4 % 2 T R -.h.j.z.j.j.j.1.;.1.j.c.l.j.z.>.h.;.e e 1 o o ",
"_.qXqX7.B.`.8X`.D Q.!.D 8.B.7.B.N.!.n ~.q.q.rX-X-X*X-X-X=X=X/.3.m Z 6 - $ * 1 V w =.;.h.j.;.;.>.j.-.1.;.z.c.j.1.j.-.;.;.w < o . ",
"_.qXeXQ.U.Q.~._.C <.J.) B.U.8.5.B.,XF.%X4.*XsX-X-X*X*X*X/.E.E.7.C 2 2 2 * . b <.e e ;.=.=.=.=.;.j.=.;.1.1.1.z.j.1.=.e e e < o O ",
"oXeX_.7.Q.U.Q.Q.7.4 p C 5.3.3.S 7.nX:XW.4.pXrX0X*X/.E.E.U.R.T.).V . 1 w . = Q ,.e 1 B B B B =.;.1.;.-.j.1.;.;.1.;.B e 1 1 1 O . ",
"eXiX_.Q.Q.U.).Q.B.Z 4 6 3.8.3.3.0.rX%XW.4.uXrX-X/.R.Y.0.0.T.U._.V o 2 w + | h.,.=.< 2 B >.:.-.;.;.1.=.;.;.=.B B =.-.=.e < 1 o O "
};
